/* XPM */
static const char *btn_play[] = {
/* columns rows colors chars-per-pixel */
"50 50 2 1 ",
"  c None",
". c black",
/* pixels */
"                                                  ",
"                                                  ",
"                                                  ",
"                                                  ",
"                                                  ",
"                                                  ",
"                                                  ",
"                                                  ",
"                                                  ",
"                                                  ",
"                                                  ",
"                 .                                ",
"                 ...                              ",
"                 .....                            ",
"                 ......                           ",
"                 ........                         ",
"                 .........                        ",
"                 ...........                      ",
"                 ............                     ",
"                 ..............                   ",
"                 ................                 ",
"                 .................                ",
"                 ...................              ",
"                 ....................             ",
"                 ......................           ",
"                 ......................           ",
"                 ....................             ",
"                 ...................              ",
"                 .................                ",
"                 ................                 ",
"                 ..............                   ",
"                 ............                     ",
"                 ...........                      ",
"                 .........                        ",
"                 ........                         ",
"                 ......                           ",
"                 .....                            ",
"                 ...                              ",
"                 .                                ",
"                                                  ",
"                                                  ",
"                                                  ",
"                                                  ",
"                                                  ",
"                                                  ",
"                                                  ",
"                                                  ",
"                                                  ",
"                                                  ",
"                                                  "
};
